<svg width="32" height="32" viewBox="0 0 32 32" fill="none" xmlns="http://www.w3.org/2000/svg">
<mask id="mask0_49_246" style="mask-type:alpha" maskUnits="userSpaceOnUse" x="0" y="0" width="32" height="32">
<rect width="32" height="32" fill="#D9D9D9"/>
</mask>
<g mask="url(#mask0_49_246)">
<path d="M6.11667 25.8833C5.59444 25.3611 5.33333 24.7333 5.33333 24C5.33333 23.2667 5.59444 22.6389 6.11667 22.1167C6.63889 21.5944 7.26667 21.3333 8 21.3333C8.73333 21.3333 9.36111 21.5944 9.88333 22.1167C10.4056 22.6389 10.6667 23.2667 10.6667 24C10.6667 24.7333 10.4056 25.3611 9.88333 25.8833C9.36111 26.4056 8.73333 26.6667 8 26.6667C7.26667 26.6667 6.63889 26.4056 6.11667 25.8833ZM14.1167 25.8833C13.5944 25.3611 13.3333 24.7333 13.3333 24C13.3333 23.2667 13.5944 22.6389 14.1167 22.1167C14.6389 21.5944 15.2667 21.3333 16 21.3333C16.7333 21.3333 17.3611 21.5944 17.8833 22.1167C18.4056 22.6389 18.6667 23.2667 18.6667 24C18.6667 24.7333 18.4056 25.3611 17.8833 25.8833C17.3611 26.4056 16.7333 26.6667 16 26.6667C15.2667 26.6667 14.6389 26.4056 14.1167 25.8833ZM22.1167 25.8833C21.5944 25.3611 21.3333 24.7333 21.3333 24C21.3333 23.2667 21.5944 22.6389 22.1167 22.1167C22.6389 21.5944 23.2667 21.3333 24 21.3333C24.7333 21.3333 25.3611 21.5944 25.8833 22.1167C26.4056 22.6389 26.6667 23.2667 26.6667 24C26.6667 24.7333 26.4056 25.3611 25.8833 25.8833C25.3611 26.4056 24.7333 26.6667 24 26.6667C23.2667 26.6667 22.6389 26.4056 22.1167 25.8833ZM6.11667 17.8833C5.59444 17.3611 5.33333 16.7333 5.33333 16C5.33333 15.2667 5.59444 14.6389 6.11667 14.1167C6.63889 13.5944 7.26667 13.3333 8 13.3333C8.73333 13.3333 9.36111 13.5944 9.88333 14.1167C10.4056 14.6389 10.6667 15.2667 10.6667 16C10.6667 16.7333 10.4056 17.3611 9.88333 17.8833C9.36111 18.4056 8.73333 18.6667 8 18.6667C7.26667 18.6667 6.63889 18.4056 6.11667 17.8833ZM14.1167 17.8833C13.5944 17.3611 13.3333 16.7333 13.3333 16C13.3333 15.2667 13.5944 14.6389 14.1167 14.1167C14.6389 13.5944 15.2667 13.3333 16 13.3333C16.7333 13.3333 17.3611 13.5944 17.8833 14.1167C18.4056 14.6389 18.6667 15.2667 18.6667 16C18.6667 16.7333 18.4056 17.3611 17.8833 17.8833C17.3611 18.4056 16.7333 18.6667 16 18.6667C15.2667 18.6667 14.6389 18.4056 14.1167 17.8833ZM22.1167 17.8833C21.5944 17.3611 21.3333 16.7333 21.3333 16C21.3333 15.2667 21.5944 14.6389 22.1167 14.1167C22.6389 13.5944 23.2667 13.3333 24 13.3333C24.7333 13.3333 25.3611 13.5944 25.8833 14.1167C26.4056 14.6389 26.6667 15.2667 26.6667 16C26.6667 16.7333 26.4056 17.3611 25.8833 17.8833C25.3611 18.4056 24.7333 18.6667 24 18.6667C23.2667 18.6667 22.6389 18.4056 22.1167 17.8833ZM6.11667 9.88333C5.59444 9.36111 5.33333 8.73333 5.33333 8C5.33333 7.26667 5.59444 6.63889 6.11667 6.11667C6.63889 5.59445 7.26667 5.33333 8 5.33333C8.73333 5.33333 9.36111 5.59445 9.88333 6.11667C10.4056 6.63889 10.6667 7.26667 10.6667 8C10.6667 8.73333 10.4056 9.36111 9.88333 9.88333C9.36111 10.4056 8.73333 10.6667 8 10.6667C7.26667 10.6667 6.63889 10.4056 6.11667 9.88333ZM14.1167 9.88333C13.5944 9.36111 13.3333 8.73333 13.3333 8C13.3333 7.26667 13.5944 6.63889 14.1167 6.11667C14.6389 5.59445 15.2667 5.33333 16 5.33333C16.7333 5.33333 17.3611 5.59445 17.8833 6.11667C18.4056 6.63889 18.6667 7.26667 18.6667 8C18.6667 8.73333 18.4056 9.36111 17.8833 9.88333C17.3611 10.4056 16.7333 10.6667 16 10.6667C15.2667 10.6667 14.6389 10.4056 14.1167 9.88333ZM22.1167 9.88333C21.5944 9.36111 21.3333 8.73333 21.3333 8C21.3333 7.26667 21.5944 6.63889 22.1167 6.11667C22.6389 5.59445 23.2667 5.33333 24 5.33333C24.7333 5.33333 25.3611 5.59445 25.8833 6.11667C26.4056 6.63889 26.6667 7.26667 26.6667 8C26.6667 8.73333 26.4056 9.36111 25.8833 9.88333C25.3611 10.4056 24.7333 10.6667 24 10.6667C23.2667 10.6667 22.6389 10.4056 22.1167 9.88333Z" fill="#1C1B1F"/>
</g>
</svg>
